<?xml version="1.0" encoding="UTF-8"?>
<svg xmlns="http://www.w3.org/2000/svg" xmlns:xlink="http://www.w3.org/1999/xlink" width="1418.2861pt" height="1567.0429pt" viewBox="0 0 1418.2861 1567.0429" version="1.1">
<g id="surface1">
<path style=" stroke:none;fill-rule:nonzero;fill:rgb(0%,0%,0%);fill-opacity:1;" d="M 420.726562 -1.296875 C 399.851562 3.578125 384.101562 12.703125 366.226562 30.578125 C 351.726562 44.953125 341.351562 59.578125 331.351562 79.453125 C 271.726562 198.703125 291.851562 395.453125 375.476562 508.203125 C 386.851562 523.578125 406.601562 543.828125 420.101562 553.953125 C 464.351562 587.328125 514.101562 589.078125 553.976562 558.703125 C 594.851562 527.453125 622.851562 467.203125 633.476562 387.578125 C 636.101562 367.078125 636.601562 303.578125 634.101562 282.578125 C 623.851562 194.828125 597.726562 122.203125 556.851562 67.328125 C 546.601562 53.703125 526.476562 33.203125 513.851562 23.578125 C 502.101562 14.703125 479.851562 3.203125 468.226562 0.078125 C 457.851562 -2.796875 430.476562 -3.546875 420.726562 -1.296875 Z M 420.726562 -1.296875 "/>
<path style=" stroke:none;fill-rule:nonzero;fill:rgb(0%,0%,0%);fill-opacity:1;" d="M 912.101562 23.953125 C 873.226562 31.578125 832.601562 61.328125 798.976562 106.578125 C 755.726562 164.703125 726.476562 241.578125 715.476562 326.328125 C 711.976562 353.328125 712.351562 413.578125 716.101562 438.078125 C 724.851562 493.953125 743.476562 536.703125 771.351562 564.453125 C 795.226562 588.453125 825.226562 599.578125 855.726562 595.953125 C 928.351562 586.953125 999.976562 507.703125 1038.226562 393.953125 C 1069.976562 299.578125 1073.351562 200.203125 1047.351562 124.453125 C 1021.976562 50.578125 970.476562 12.328125 912.101562 23.953125 Z M 912.101562 23.953125 "/>
<path style=" stroke:none;fill-rule:nonzero;fill:rgb(0%,0%,0%);fill-opacity:1;" d="M 105.726562 431.953125 C 54.601562 440.078125 16.101562 481.328125 -1.273438 546.828125 C -11.148438 584.453125 -12.523438 636.328125 -4.773438 681.953125 C 13.101562 788.203125 74.601562 885.828125 147.351562 923.578125 C 184.601562 942.828125 221.726562 946.203125 253.601562 932.953125 C 300.601562 913.453125 331.476562 862.953125 341.601562 788.828125 C 343.601562 773.953125 343.601562 729.828125 341.476562 712.578125 C 325.226562 574.828125 240.351562 453.953125 145.976562 433.828125 C 134.851562 431.453125 115.101562 430.578125 105.726562 431.953125 Z M 105.726562 431.953125 "/>
<path style=" stroke:none;fill-rule:nonzero;fill:rgb(0%,0%,0%);fill-opacity:1;" d="M 1165.101562 533.203125 C 1120.101562 542.828125 1075.976562 574.453125 1039.351562 623.453125 C 999.601562 676.703125 972.851562 746.203125 965.101562 816.203125 C 963.101562 834.453125 963.476562 873.703125 965.726562 891.328125 C 980.976562 1009.828125 1061.476562 1066.703125 1152.601562 1023.703125 C 1201.476562 1000.578125 1245.726562 952.953125 1277.351562 889.578125 C 1337.351562 769.578125 1333.476562 628.953125 1268.226562 563.828125 C 1240.726562 536.328125 1202.851562 525.078125 1165.101562 533.203125 Z M 1165.101562 533.203125 "/>
<path style=" stroke:none;fill-rule:nonzero;fill:rgb(0%,0%,0%);fill-opacity:1;" d="M 621.976562 755.578125 C 539.226562 770.328125 434.851562 857.203125 342.351562 988.203125 C 269.976562 1090.828125 218.976562 1201.328125 203.726562 1288.828125 C 200.101562 1309.828125 199.726562 1347.328125 202.976562 1361.703125 C 208.101562 1384.078125 216.726562 1398.828125 233.476562 1414.453125 C 261.476562 1440.328125 295.101562 1455.578125 337.226562 1461.453125 C 359.101562 1464.453125 403.351562 1463.328125 431.476562 1459.078125 C 469.101562 1453.203125 500.851562 1445.578125 571.976562 1425.078125 C 640.726562 1405.328125 659.976562 1401.203125 678.976562 1402.453125 C 703.101562 1404.078125 721.226562 1409.953125 773.226562 1432.828125 C 810.476562 1449.203125 831.226562 1456.953125 848.976562 1461.328125 C 915.226562 1477.328125 970.976562 1456.453125 1028.351562 1394.203125 C 1045.476562 1375.703125 1050.726562 1366.703125 1056.101562 1347.078125 C 1059.101562 1335.828125 1059.351562 1333.328125 1059.351562 1306.953125 C 1059.351562 1283.078125 1058.976562 1276.328125 1056.476562 1262.578125 C 1041.726562 1179.203125 997.851562 1078.453125 934.476562 982.578125 C 859.101562 868.578125 770.601562 786.453125 696.726562 762.078125 C 669.851562 753.203125 646.976562 751.203125 621.976562 755.578125 Z M 621.976562 755.578125 "/>
</g>
</svg>
