<?xml version="1.0" encoding="UTF-8"?>
<svg xmlns="http://www.w3.org/2000/svg" xmlns:xlink="http://www.w3.org/1999/xlink" width="1706.8pt" height="845.17981pt" viewBox="0 0 1706.8 845.17981" version="1.1">
<g id="surface1">
<path style=" stroke:none;fill-rule:nonzero;fill:rgb(0%,0%,0%);fill-opacity:1;" d="M 676.382812 10.253906 C 660.257812 16.003906 635.757812 24.753906 622.007812 29.753906 C 576.507812 46.128906 553.757812 51.003906 523.132812 51.003906 C 504.757812 51.003906 487.882812 49.003906 471.507812 44.753906 C 459.007812 41.628906 450.632812 41.628906 434.757812 44.753906 C 410.382812 49.753906 378.507812 61.753906 343.507812 79.253906 C 336.132812 83.003906 329.632812 85.753906 329.007812 85.503906 C 328.507812 85.128906 326.757812 80.628906 325.257812 75.503906 C 321.382812 62.628906 320.007812 61.628906 305.882812 61.628906 C 295.382812 61.628906 293.757812 62.003906 285.132812 66.128906 C 280.007812 68.628906 268.507812 76.128906 259.507812 82.878906 C 228.507812 106.253906 211.757812 109.753906 191.382812 97.253906 C 186.882812 94.503906 182.382812 92.253906 181.257812 92.253906 C 180.257812 92.253906 177.507812 94.253906 175.132812 96.628906 L 171.007812 100.878906 L 175.257812 104.878906 C 177.632812 107.128906 182.632812 110.878906 186.382812 113.378906 L 193.257812 117.878906 L 214.507812 117.878906 C 230.007812 117.753906 239.007812 117.128906 247.882812 115.503906 C 261.632812 112.878906 263.257812 113.253906 264.632812 120.378906 C 265.132812 123.128906 264.632812 125.878906 263.132812 128.628906 C 259.757812 135.253906 247.632812 153.003906 238.007812 165.378906 C 224.882812 182.128906 182.882812 230.253906 180.132812 231.503906 C 178.507812 232.253906 175.382812 231.753906 170.382812 229.878906 C 161.007812 226.378906 156.257812 227.378906 145.632812 235.378906 C 135.882812 242.503906 132.882812 247.128906 125.757812 264.753906 C 122.632812 272.628906 119.757812 279.253906 119.507812 279.628906 C 119.132812 279.878906 117.882812 279.128906 116.507812 278.003906 C 113.632812 275.378906 113.507812 275.503906 110.632812 287.628906 L 108.382812 297.253906 L 101.632812 290.753906 L 100.132812 298.128906 C 99.382812 302.128906 98.382812 306.753906 98.007812 308.378906 L 97.257812 311.378906 L 92.757812 305.878906 L 91.007812 309.378906 C 90.132812 311.253906 88.007812 316.253906 86.382812 320.378906 C 82.507812 330.378906 81.757812 331.253906 78.632812 329.628906 C 75.507812 327.878906 75.007812 328.378906 74.382812 335.003906 C 74.007812 338.003906 73.507812 341.753906 73.132812 343.378906 L 72.507812 346.378906 L 69.632812 343.628906 L 66.757812 341.003906 L 65.257812 346.253906 C 62.257812 356.003906 51.632812 376.753906 42.757812 389.878906 C 31.882812 406.128906 24.382812 414.378906 19.507812 415.378906 C 11.382812 417.003906 4.507812 420.503906 3.132812 423.503906 C 2.257812 425.253906 1.257812 431.378906 0.882812 437.253906 L 0.0078125 448.003906 L 32.882812 463.878906 C 51.007812 472.628906 66.632812 479.753906 67.757812 479.753906 C 68.882812 479.753906 71.507812 477.503906 73.757812 474.753906 C 77.382812 470.253906 78.257812 469.753906 83.382812 469.753906 C 90.757812 469.753906 102.507812 465.628906 111.257812 460.128906 C 125.882812 450.753906 133.507812 448.878906 136.882812 453.753906 C 138.007812 455.253906 138.882812 457.503906 138.882812 458.753906 C 138.882812 459.878906 134.132812 469.253906 128.257812 479.503906 C 122.382812 489.753906 117.632812 498.753906 117.632812 499.503906 C 117.632812 500.253906 119.632812 502.378906 122.132812 504.378906 L 126.632812 507.753906 L 155.007812 504.253906 C 200.757812 498.628906 222.757812 496.128906 248.132812 494.003906 C 261.257812 492.878906 272.132812 491.753906 272.382812 491.628906 C 272.632812 491.378906 271.632812 489.003906 270.257812 486.128906 C 268.757812 483.378906 267.632812 480.753906 267.632812 480.378906 C 267.632812 480.003906 272.007812 480.003906 277.257812 480.503906 L 286.882812 481.378906 L 281.007812 473.878906 C 277.757812 469.878906 275.132812 466.128906 275.132812 465.753906 C 275.132812 465.378906 279.507812 466.128906 284.757812 467.378906 C 290.132812 468.503906 294.632812 469.378906 294.882812 469.128906 C 295.132812 468.878906 293.007812 467.128906 290.257812 465.253906 C 287.382812 463.503906 285.132812 461.503906 285.132812 460.878906 C 285.132812 459.378906 303.507812 444.753906 305.382812 444.753906 C 306.257812 444.753906 308.882812 447.628906 311.257812 451.003906 C 313.632812 454.503906 315.882812 457.253906 316.257812 457.253906 C 316.757812 457.253906 318.757812 454.003906 320.757812 450.003906 L 324.257812 442.878906 L 326.132812 447.503906 C 328.257812 453.003906 329.882812 453.378906 333.882812 449.128906 C 338.007812 444.753906 338.882812 445.128906 338.882812 451.503906 C 338.882812 458.628906 340.382812 459.503906 343.007812 454.003906 C 345.882812 448.128906 347.757812 447.753906 353.882812 451.628906 C 359.632812 455.253906 359.757812 454.253906 352.757812 463.503906 L 349.757812 467.628906 L 357.382812 466.753906 C 362.007812 466.253906 365.132812 466.378906 365.132812 467.003906 C 365.132812 467.753906 364.007812 470.628906 362.757812 473.628906 C 361.382812 476.628906 360.507812 479.253906 360.632812 479.503906 C 360.882812 479.628906 363.132812 478.628906 365.632812 477.128906 L 370.132812 474.503906 L 371.507812 478.128906 C 372.882812 481.503906 372.257812 499.253906 370.632812 504.378906 C 370.007812 506.378906 373.257812 502.878906 380.257812 494.253906 C 382.257812 491.753906 382.632812 492.003906 393.507812 502.878906 C 407.132812 516.628906 410.757812 523.253906 410.757812 534.753906 C 410.757812 542.003906 410.007812 544.253906 404.132812 556.128906 C 396.632812 571.378906 381.632812 594.628906 361.507812 622.253906 C 341.507812 649.628906 325.257812 674.503906 317.132812 689.753906 C 310.507812 702.503906 309.507812 703.628906 287.632812 724.628906 C 275.132812 736.628906 265.382812 746.753906 266.007812 747.253906 C 268.257812 749.378906 304.007812 758.503906 322.632812 761.753906 C 335.632812 764.003906 346.257812 763.503906 355.382812 760.253906 C 362.382812 757.878906 365.882812 754.378906 368.382812 747.378906 C 369.507812 744.253906 371.632812 740.628906 373.007812 739.378906 C 376.132812 736.628906 385.507812 736.503906 388.257812 739.253906 C 389.757812 740.878906 407.257812 747.253906 410.007812 747.253906 C 411.007812 747.253906 408.882812 732.878906 405.757812 718.503906 C 401.507812 699.503906 402.007812 695.003906 409.507812 685.128906 C 412.507812 681.128906 421.632812 671.503906 429.757812 663.628906 C 467.257812 627.378906 472.632812 621.753906 480.007812 611.378906 C 489.257812 598.628906 497.757812 581.878906 501.507812 569.253906 C 505.257812 556.628906 506.382812 554.253906 507.507812 555.503906 C 508.132812 556.128906 511.507812 567.253906 515.132812 580.378906 C 518.757812 593.378906 523.632812 609.128906 525.882812 615.378906 C 531.132812 628.878906 540.882812 647.503906 544.382812 650.878906 C 545.882812 652.253906 568.632812 660.878906 595.132812 670.128906 C 662.132812 693.503906 682.757812 701.628906 709.382812 715.003906 L 722.007812 721.378906 L 754.507812 719.253906 C 788.632812 717.003906 801.257812 714.753906 805.632812 710.003906 C 807.632812 707.628906 807.507812 707.253906 801.632812 700.253906 C 795.257812 692.628906 784.007812 682.753906 764.507812 667.753906 C 751.382812 657.628906 736.882812 643.628906 732.007812 636.253906 C 730.132812 633.378906 728.007812 631.003906 727.507812 631.003906 C 726.882812 631.003906 720.507812 633.503906 713.382812 636.628906 C 685.132812 648.628906 677.507812 648.878906 660.257812 638.378906 C 646.507812 630.003906 628.632812 616.628906 621.507812 609.378906 C 616.757812 604.503906 615.882812 602.753906 615.382812 597.128906 C 614.632812 588.878906 616.757812 577.003906 622.882812 556.003906 C 630.007812 531.503906 628.132812 533.128906 648.632812 534.128906 C 675.632812 535.378906 708.882812 538.253906 750.132812 542.878906 C 873.882812 556.628906 907.132812 557.253906 956.257812 546.503906 C 983.382812 540.628906 1012.007812 530.003906 1037.382812 516.503906 C 1044.382812 512.628906 1050.757812 510.003906 1051.507812 510.378906 C 1053.382812 511.628906 1060.882812 528.253906 1066.507812 544.003906 C 1074.757812 566.753906 1084.007812 607.628906 1084.382812 622.253906 C 1084.507812 628.378906 1083.757812 630.378906 1079.007812 638.503906 C 1063.007812 665.753906 1045.132812 683.753906 1003.882812 714.628906 C 955.882812 750.628906 924.257812 777.753906 927.757812 779.878906 C 928.632812 780.378906 936.632812 781.128906 945.632812 781.628906 C 963.007812 782.628906 966.382812 783.503906 966.382812 787.128906 C 966.382812 791.628906 969.507812 792.628906 981.132812 791.878906 C 1002.757812 790.253906 1027.632812 782.003906 1044.882812 770.628906 C 1055.507812 763.753906 1059.882812 763.003906 1069.507812 766.503906 C 1072.257812 767.503906 1074.882812 767.878906 1075.507812 767.378906 C 1076.007812 766.878906 1077.257812 763.253906 1078.257812 759.128906 C 1080.882812 749.253906 1086.257812 739.503906 1095.757812 727.628906 C 1105.132812 715.878906 1116.757812 705.503906 1140.632812 687.503906 C 1172.507812 663.503906 1189.632812 644.378906 1195.132812 626.378906 C 1197.382812 619.128906 1197.757812 613.628906 1198.382812 580.503906 C 1198.882812 554.253906 1199.507812 542.503906 1200.507812 541.503906 C 1202.007812 540.128906 1253.507812 528.503906 1258.007812 528.503906 C 1259.382812 528.503906 1263.007812 530.753906 1266.132812 533.628906 C 1275.757812 542.003906 1290.007812 550.128906 1314.882812 561.003906 C 1327.757812 566.753906 1338.757812 571.753906 1339.382812 572.378906 C 1339.882812 572.878906 1338.132812 576.503906 1335.382812 580.628906 C 1328.632812 590.628906 1324.632812 598.753906 1321.132812 609.753906 C 1318.632812 618.003906 1318.257812 621.628906 1318.257812 639.128906 C 1318.257812 653.753906 1318.882812 662.253906 1320.632812 670.628906 C 1321.882812 677.003906 1323.382812 682.253906 1323.757812 682.253906 C 1324.257812 682.253906 1326.632812 676.628906 1328.882812 669.753906 C 1331.257812 662.878906 1333.507812 657.253906 1333.882812 657.253906 C 1334.382812 657.253906 1335.632812 662.753906 1336.882812 669.378906 C 1338.132812 676.128906 1340.007812 683.628906 1341.007812 686.003906 L 1343.007812 690.378906 L 1346.007812 677.253906 C 1348.632812 665.503906 1348.882812 662.253906 1348.257812 646.003906 C 1347.882812 636.003906 1347.632812 625.628906 1347.632812 623.003906 C 1347.757812 617.878906 1350.882812 609.753906 1354.382812 605.378906 C 1356.257812 603.003906 1356.382812 603.003906 1358.132812 605.128906 C 1359.132812 606.378906 1360.882812 612.753906 1362.132812 619.378906 C 1365.007812 635.753906 1364.007812 664.253906 1359.632812 686.628906 C 1357.882812 695.503906 1356.007812 705.128906 1355.632812 707.878906 L 1354.757812 712.878906 L 1360.632812 707.253906 C 1373.757812 694.628906 1379.007812 682.003906 1382.632812 653.753906 C 1386.757812 622.628906 1391.007812 605.128906 1394.757812 603.878906 C 1395.632812 603.503906 1402.132812 609.128906 1409.257812 616.253906 C 1421.882812 628.753906 1431.257812 641.628906 1449.257812 671.003906 C 1460.757812 689.753906 1477.757812 706.253906 1494.632812 714.878906 C 1502.007812 718.628906 1503.007812 719.503906 1506.632812 727.003906 C 1513.757812 741.378906 1527.382812 752.753906 1566.882812 777.128906 C 1573.632812 781.378906 1579.757812 784.753906 1580.382812 784.753906 C 1584.507812 784.753906 1600.132812 766.503906 1600.132812 761.753906 C 1600.132812 758.128906 1583.007812 713.003906 1577.757812 702.878906 C 1575.257812 698.128906 1570.007812 690.628906 1565.882812 686.378906 C 1559.382812 679.378906 1557.632812 678.253906 1549.632812 675.878906 C 1536.132812 671.753906 1524.632812 665.253906 1515.132812 656.128906 L 1506.507812 647.878906 L 1500.757812 626.003906 C 1492.882812 595.628906 1487.007812 577.878906 1481.007812 565.753906 L 1475.757812 555.378906 L 1464.132812 549.128906 C 1457.757812 545.628906 1449.132812 540.378906 1444.882812 537.253906 C 1428.382812 525.003906 1409.882812 501.878906 1395.632812 475.378906 L 1389.507812 464.128906 L 1389.632812 449.128906 C 1389.632812 440.878906 1391.257812 420.878906 1393.257812 404.753906 C 1399.882812 349.878906 1397.632812 327.128906 1382.257812 296.628906 C 1373.382812 278.753906 1366.757812 270.003906 1331.382812 229.128906 C 1320.632812 216.753906 1308.507812 202.378906 1304.257812 197.128906 C 1291.132812 180.878906 1290.132812 180.253906 1259.757812 166.503906 C 1248.882812 161.628906 1240.007812 157.128906 1239.882812 156.503906 C 1239.882812 155.878906 1245.382812 154.003906 1252.132812 152.253906 C 1265.257812 149.003906 1265.882812 148.753906 1265.007812 148.003906 C 1264.757812 147.753906 1254.382812 146.003906 1242.007812 144.128906 C 1208.007812 139.128906 1208.257812 139.878906 1236.757812 133.003906 C 1250.382812 129.628906 1261.382812 126.753906 1261.132812 126.628906 C 1260.882812 126.378906 1244.257812 126.753906 1224.007812 127.378906 C 1203.757812 128.003906 1187.132812 128.378906 1186.882812 128.128906 C 1186.632812 127.878906 1189.007812 123.878906 1192.132812 119.253906 C 1196.382812 113.003906 1197.257812 111.003906 1195.507812 111.503906 C 1187.882812 113.753906 1155.882812 120.878906 1155.382812 120.503906 C 1155.132812 120.128906 1158.382812 115.003906 1162.632812 109.128906 C 1166.882812 103.128906 1170.132812 98.128906 1169.882812 97.878906 C 1169.632812 97.628906 1163.257812 100.253906 1155.632812 103.503906 C 1134.632812 112.503906 1135.507812 112.503906 1141.257812 103.378906 C 1144.007812 99.003906 1146.132812 95.253906 1145.882812 95.128906 C 1145.757812 94.878906 1139.882812 96.753906 1132.882812 99.003906 C 1125.882812 101.378906 1120.132812 103.003906 1120.132812 102.628906 C 1120.132812 102.253906 1122.632812 99.128906 1125.757812 95.753906 C 1128.882812 92.253906 1131.257812 89.253906 1131.007812 89.003906 C 1130.757812 88.753906 1127.257812 89.628906 1123.132812 91.003906 C 1103.382812 97.878906 1071.757812 104.503906 1042.632812 108.003906 C 1020.132812 110.753906 959.382812 111.128906 937.632812 108.753906 C 900.007812 104.503906 847.632812 94.878906 847.632812 92.128906 C 847.632812 88.628906 860.007812 85.878906 884.507812 84.003906 C 894.132812 83.253906 894.257812 83.128906 891.007812 81.378906 C 889.132812 80.503906 883.257812 78.503906 877.882812 77.003906 C 869.632812 74.878906 862.882812 74.378906 830.132812 73.628906 C 794.757812 72.753906 791.507812 72.503906 784.757812 69.878906 C 780.882812 68.378906 777.882812 66.628906 778.132812 66.128906 C 778.507812 65.628906 783.132812 64.128906 788.382812 62.878906 C 797.757812 60.628906 798.757812 60.753906 830.632812 63.378906 C 848.507812 64.878906 864.132812 66.003906 865.132812 66.003906 C 868.382812 65.878906 864.132812 63.753906 855.507812 61.128906 C 840.257812 56.253906 829.882812 55.753906 784.507812 57.253906 C 743.007812 58.628906 717.757812 57.878906 714.757812 54.878906 C 713.507812 53.628906 725.632812 48.128906 738.257812 44.503906 C 747.382812 41.878906 750.632812 41.628906 774.507812 41.753906 C 789.882812 41.753906 808.507812 42.753906 819.382812 43.878906 C 841.507812 46.378906 843.507812 46.378906 837.007812 44.003906 C 820.382812 37.753906 785.632812 32.628906 770.132812 34.128906 C 766.382812 34.378906 753.757812 35.628906 742.257812 36.753906 C 730.632812 37.878906 721.007812 38.503906 720.632812 38.253906 C 719.882812 37.378906 760.507812 30.003906 783.257812 26.753906 L 803.257812 23.878906 L 795.132812 23.128906 C 784.757812 22.003906 758.257812 23.878906 725.757812 27.878906 C 711.632812 29.628906 698.882812 31.003906 697.382812 31.003906 C 693.882812 30.878906 702.257812 27.253906 723.882812 19.628906 C 740.882812 13.628906 740.757812 12.378906 723.132812 14.753906 C 699.257812 17.878906 681.507812 25.378906 652.882812 44.003906 C 631.882812 57.753906 626.632812 60.253906 621.757812 58.378906 C 617.257812 56.753906 608.882812 48.628906 608.882812 45.878906 C 608.882812 40.878906 629.382812 30.378906 659.507812 19.753906 C 690.507812 8.753906 712.507812 -0.496094 707.007812 -0.246094 C 706.257812 -0.121094 692.507812 4.503906 676.382812 10.253906 Z M 676.382812 10.253906 "/>
</g>
</svg>
