<?xml version="1.0" encoding="UTF-8"?>
<svg xmlns="http://www.w3.org/2000/svg" xmlns:xlink="http://www.w3.org/1999/xlink" width="1532.6576pt" height="1705.7406pt" viewBox="0 0 1532.6576 1705.7406" version="1.1">
<g id="surface1">
<path style=" stroke:none;fill-rule:nonzero;fill:rgb(0%,0%,0%);fill-opacity:1;" d="M 1326.324219 3.78125 C 1322.949219 6.03125 1317.449219 11.53125 1313.949219 15.90625 C 1310.574219 20.40625 1303.949219 28.03125 1299.324219 33.03125 C 1294.824219 38.03125 1284.699219 51.65625 1276.949219 63.15625 C 1253.949219 97.53125 1253.324219 98.15625 1237.449219 99.28125 C 1226.699219 100.03125 1209.574219 102.65625 1197.199219 105.53125 C 1159.824219 114.15625 1118.824219 154.53125 1088.324219 212.65625 C 1081.449219 225.65625 1079.949219 227.65625 1075.449219 230.03125 C 1067.199219 234.15625 1048.324219 254.15625 1023.699219 284.78125 C 1003.574219 309.90625 995.324219 318.90625 984.074219 328.15625 C 980.324219 331.15625 979.824219 336.03125 982.699219 341.03125 C 983.699219 342.78125 984.449219 344.40625 984.574219 344.78125 C 984.574219 345.15625 979.949219 344.78125 974.324219 344.03125 C 962.324219 342.15625 937.824219 341.78125 938.824219 343.40625 C 939.199219 343.90625 941.824219 344.78125 944.699219 345.28125 C 950.699219 346.28125 960.574219 351.03125 963.699219 354.53125 C 965.824219 356.90625 965.824219 356.90625 961.199219 357.78125 C 958.574219 358.15625 952.449219 358.53125 947.574219 358.53125 C 937.824219 358.53125 927.324219 360.15625 917.324219 363.28125 C 910.824219 365.28125 910.824219 365.28125 914.074219 366.65625 C 917.074219 367.78125 915.949219 368.15625 904.949219 369.53125 C 891.824219 371.15625 871.324219 376.28125 869.199219 378.40625 C 868.449219 379.15625 870.699219 379.90625 875.324219 380.40625 C 886.574219 381.65625 896.074219 383.65625 899.574219 385.53125 L 902.699219 387.15625 L 899.574219 387.28125 C 884.449219 387.65625 854.324219 393.28125 852.574219 396.15625 C 852.199219 396.78125 855.199219 397.28125 859.324219 397.28125 C 868.574219 397.28125 877.074219 399.78125 882.949219 404.28125 C 888.199219 408.28125 887.699219 408.78125 875.199219 411.03125 C 870.449219 411.90625 864.199219 413.40625 861.449219 414.40625 C 856.699219 416.03125 844.574219 423.53125 844.574219 424.78125 C 844.574219 425.15625 847.324219 425.15625 850.699219 425.03125 C 854.949219 424.65625 858.699219 425.40625 863.199219 427.28125 C 870.074219 430.28125 871.449219 432.28125 866.574219 432.28125 C 855.324219 432.28125 817.324219 444.40625 814.324219 449.03125 C 812.574219 451.65625 813.324219 452.03125 818.949219 451.28125 C 825.324219 450.65625 840.824219 453.40625 838.074219 454.78125 C 837.199219 455.28125 830.574219 456.40625 823.324219 457.15625 C 816.074219 458.03125 807.074219 459.53125 803.199219 460.40625 C 794.449219 462.65625 784.574219 467.03125 784.574219 468.53125 C 784.574219 469.28125 788.699219 469.78125 793.824219 469.78125 C 798.949219 469.78125 804.699219 470.40625 806.699219 471.28125 L 810.199219 472.78125 L 807.074219 473.15625 C 775.574219 477.78125 761.949219 481.28125 731.699219 492.40625 C 716.324219 498.15625 710.324219 499.78125 704.824219 499.78125 C 691.699219 499.90625 668.324219 504.53125 668.324219 507.15625 C 668.324219 507.65625 669.574219 508.65625 670.949219 509.28125 C 673.199219 510.28125 671.949219 510.90625 663.824219 512.90625 C 654.699219 515.15625 654.324219 515.40625 658.949219 515.78125 C 666.199219 516.28125 676.949219 518.53125 677.699219 519.65625 C 677.949219 520.28125 675.824219 520.40625 672.824219 520.15625 C 666.574219 519.40625 655.949219 522.15625 649.574219 526.28125 L 645.199219 529.03125 L 651.949219 529.90625 C 662.574219 531.28125 662.324219 533.15625 651.199219 533.90625 C 645.824219 534.15625 638.324219 535.28125 634.574219 536.15625 L 627.699219 537.78125 L 636.824219 539.15625 C 646.074219 540.65625 648.824219 541.78125 645.699219 542.78125 C 582.324219 564.53125 501.699219 580.03125 411.449219 587.90625 C 352.449219 592.90625 337.074219 593.65625 326.074219 591.53125 C 316.824219 589.78125 315.074219 589.78125 309.199219 591.53125 C 299.699219 594.40625 298.199219 595.53125 302.324219 597.15625 C 304.074219 597.78125 305.949219 599.03125 306.574219 599.90625 C 307.199219 601.03125 306.824219 601.15625 305.074219 600.53125 C 297.824219 597.65625 273.324219 598.78125 273.324219 602.03125 C 273.324219 602.53125 275.199219 604.03125 277.449219 605.28125 C 281.449219 607.78125 281.449219 607.78125 278.324219 608.28125 C 267.324219 609.90625 249.324219 614.03125 239.949219 617.28125 C 228.074219 621.28125 210.949219 628.65625 210.824219 629.90625 C 210.824219 630.28125 213.449219 631.15625 216.699219 631.78125 L 222.449219 632.90625 L 198.199219 643.40625 C 164.449219 658.03125 136.574219 672.28125 119.699219 683.65625 C 105.324219 693.15625 87.074219 708.90625 81.949219 716.15625 L 79.199219 720.03125 L 91.449219 718.28125 L 85.824219 721.78125 C 75.324219 728.28125 65.199219 736.53125 53.574219 748.28125 C 47.324219 754.78125 42.074219 760.53125 42.074219 761.15625 C 42.074219 761.78125 45.824219 760.78125 50.449219 759.15625 L 58.949219 755.90625 L 52.074219 761.90625 C 33.074219 778.15625 20.449219 795.40625 15.199219 812.28125 C 14.324219 815.03125 14.824219 814.78125 19.824219 810.15625 C 25.824219 804.65625 32.699219 800.65625 34.699219 801.28125 C 35.324219 801.53125 31.824219 807.03125 26.949219 813.53125 C 18.074219 825.28125 10.824219 838.28125 10.824219 842.65625 C 10.824219 844.65625 11.074219 844.65625 14.574219 842.90625 C 19.699219 840.28125 20.074219 840.53125 17.324219 844.40625 C 10.074219 854.78125 5.199219 869.65625 6.074219 879.03125 L 6.449219 884.03125 L 10.324219 877.78125 C 13.824219 872.03125 19.949219 867.15625 21.574219 868.78125 C 21.949219 869.28125 19.699219 874.03125 16.699219 879.40625 C 5.449219 898.90625 -2.300781 919.65625 0.574219 922.53125 C 1.699219 923.65625 2.699219 923.15625 5.074219 920.65625 C 7.824219 917.65625 21.074219 908.53125 22.574219 908.53125 C 22.949219 908.53125 20.949219 913.40625 18.199219 919.40625 C 11.074219 934.90625 5.824219 950.53125 5.824219 956.15625 C 5.824219 958.78125 6.199219 961.03125 6.824219 961.03125 C 7.324219 961.03125 9.324219 959.03125 11.199219 956.53125 C 14.699219 952.15625 23.949219 944.78125 25.949219 944.78125 C 27.199219 944.78125 25.824219 948.53125 15.324219 975.03125 C 1.324219 1010.15625 -2.300781 1030.15625 1.949219 1049.53125 L 3.699219 1057.53125 L 7.824219 1053.03125 C 11.574219 1049.03125 17.949219 1045.28125 19.074219 1046.40625 C 19.324219 1046.65625 17.574219 1050.78125 15.199219 1055.53125 C 10.824219 1063.90625 4.449219 1090.03125 6.199219 1091.78125 C 6.574219 1092.28125 9.199219 1090.78125 12.074219 1088.53125 C 17.574219 1084.15625 17.949219 1084.53125 15.199219 1092.28125 C 12.949219 1098.53125 12.949219 1098.90625 14.574219 1097.90625 C 16.324219 1096.78125 16.199219 1097.28125 12.199219 1105.53125 C 8.074219 1114.03125 5.324219 1124.90625 6.074219 1130.28125 L 6.449219 1134.03125 L 10.074219 1128.78125 C 12.074219 1125.90625 13.949219 1123.65625 14.199219 1123.90625 C 14.449219 1124.15625 13.699219 1126.90625 12.574219 1129.90625 C 11.574219 1132.90625 10.324219 1139.65625 10.074219 1144.78125 L 9.324219 1154.15625 L 12.074219 1150.03125 C 13.699219 1147.78125 15.074219 1146.03125 15.199219 1146.28125 C 15.449219 1146.53125 14.449219 1150.90625 13.199219 1156.03125 C 10.074219 1167.78125 8.699219 1185.28125 10.574219 1186.53125 C 11.449219 1187.03125 13.324219 1184.90625 15.449219 1181.03125 C 20.324219 1172.03125 25.574219 1164.78125 27.199219 1164.78125 C 28.074219 1164.78125 28.199219 1165.65625 27.699219 1166.90625 C 24.824219 1173.53125 17.824219 1199.90625 14.074219 1218.78125 C 3.949219 1268.15625 5.699219 1281.15625 19.324219 1259.78125 C 25.574219 1250.03125 30.324219 1246.53125 29.074219 1252.53125 C 28.699219 1254.15625 27.449219 1263.78125 26.324219 1273.90625 C 23.199219 1301.53125 25.199219 1336.03125 29.824219 1336.03125 C 30.324219 1336.03125 30.824219 1331.53125 30.824219 1325.90625 C 30.824219 1315.28125 33.824219 1305.15625 35.949219 1308.78125 C 38.449219 1313.28125 42.324219 1331.15625 45.824219 1354.15625 C 51.574219 1391.90625 55.699219 1405.53125 65.449219 1418.78125 C 69.699219 1424.78125 81.074219 1434.78125 83.449219 1434.78125 C 83.949219 1434.78125 85.074219 1432.53125 85.824219 1429.78125 C 87.074219 1425.03125 93.699219 1416.03125 95.824219 1416.03125 C 96.449219 1416.03125 97.199219 1419.28125 97.699219 1423.15625 C 99.824219 1443.65625 103.074219 1457.03125 106.574219 1459.90625 C 109.199219 1462.15625 110.324219 1460.03125 112.199219 1449.40625 C 113.074219 1443.65625 113.949219 1441.15625 114.824219 1442.03125 C 116.824219 1444.03125 117.824219 1451.03125 117.074219 1458.03125 C 116.699219 1461.65625 116.824219 1464.28125 117.324219 1464.03125 C 119.074219 1462.90625 123.574219 1453.28125 125.824219 1446.03125 L 127.949219 1439.15625 L 129.324219 1444.15625 C 130.199219 1446.90625 130.824219 1453.28125 130.824219 1458.15625 C 130.824219 1463.15625 131.324219 1467.28125 131.949219 1467.28125 C 133.949219 1467.28125 141.199219 1457.90625 142.699219 1453.40625 L 144.199219 1449.28125 L 148.074219 1454.65625 C 153.074219 1461.53125 155.574219 1469.65625 156.574219 1482.40625 C 157.074219 1487.90625 157.824219 1492.28125 158.324219 1492.28125 C 160.824219 1492.28125 168.074219 1469.03125 169.949219 1454.78125 L 170.324219 1451.65625 L 172.074219 1455.40625 C 172.949219 1457.40625 173.699219 1462.90625 173.699219 1467.53125 C 173.699219 1472.28125 174.074219 1476.03125 174.449219 1476.03125 C 178.449219 1476.03125 188.324219 1459.40625 188.324219 1452.65625 C 188.324219 1443.53125 199.574219 1476.15625 203.949219 1498.03125 C 205.699219 1506.40625 207.074219 1516.15625 207.074219 1519.65625 C 207.074219 1526.78125 208.449219 1530.28125 212.574219 1533.78125 C 214.074219 1535.03125 227.449219 1543.40625 242.449219 1552.53125 C 257.449219 1561.65625 273.949219 1572.40625 279.324219 1576.40625 C 293.574219 1587.15625 301.449219 1590.78125 320.699219 1595.03125 C 341.199219 1599.65625 359.574219 1600.40625 367.824219 1597.03125 C 372.699219 1595.03125 373.824219 1595.03125 384.074219 1596.90625 C 396.574219 1599.15625 405.574219 1598.15625 411.949219 1593.53125 C 416.574219 1590.28125 419.324219 1590.40625 422.949219 1593.65625 L 425.699219 1596.40625 L 427.074219 1593.03125 C 429.449219 1586.53125 428.449219 1581.53125 422.074219 1568.65625 C 414.074219 1552.78125 406.199219 1543.90625 395.574219 1539.03125 C 388.199219 1535.65625 386.824219 1535.40625 372.074219 1535.53125 C 360.824219 1535.53125 354.949219 1536.15625 351.199219 1537.53125 C 345.949219 1539.65625 345.949219 1539.65625 340.574219 1535.78125 C 331.949219 1529.65625 310.699219 1507.40625 304.199219 1497.53125 C 285.699219 1469.78125 278.699219 1442.40625 284.449219 1420.15625 C 293.949219 1383.28125 313.949219 1346.40625 338.449219 1320.65625 C 351.699219 1306.53125 361.324219 1299.28125 376.949219 1291.65625 C 399.699219 1280.40625 415.699219 1264.65625 440.324219 1229.15625 C 450.449219 1214.65625 451.449219 1213.53125 453.074219 1215.65625 C 454.199219 1217.15625 454.574219 1219.90625 454.199219 1224.40625 C 453.824219 1228.03125 453.949219 1231.03125 454.449219 1231.03125 C 456.199219 1231.03125 462.449219 1215.78125 463.074219 1210.15625 C 463.574219 1205.15625 463.824219 1204.90625 465.824219 1206.65625 C 466.949219 1207.65625 469.199219 1211.40625 470.824219 1214.78125 C 472.449219 1218.28125 474.199219 1221.03125 474.699219 1221.03125 C 475.199219 1221.03125 476.824219 1218.65625 478.199219 1215.65625 C 481.324219 1209.28125 481.574219 1201.90625 478.949219 1192.28125 C 477.949219 1188.53125 477.324219 1185.28125 477.574219 1185.15625 C 478.699219 1184.03125 484.699219 1193.03125 486.699219 1198.53125 C 487.949219 1202.03125 489.324219 1204.78125 489.699219 1204.78125 C 491.074219 1204.78125 493.324219 1198.28125 495.074219 1188.53125 C 496.074219 1183.40625 497.324219 1178.15625 497.824219 1176.78125 C 498.699219 1174.65625 498.824219 1174.65625 500.199219 1177.40625 C 501.699219 1180.15625 501.824219 1180.15625 504.949219 1174.03125 C 513.199219 1157.65625 519.449219 1123.90625 520.449219 1089.78125 C 521.199219 1064.53125 519.824219 1051.28125 515.824219 1042.78125 C 514.449219 1040.03125 513.324219 1037.40625 513.324219 1037.03125 C 513.324219 1035.90625 523.074219 1032.28125 525.949219 1032.28125 C 530.324219 1032.28125 536.449219 1039.78125 540.199219 1049.78125 C 542.074219 1054.90625 544.074219 1059.65625 544.699219 1060.28125 C 545.199219 1060.78125 546.074219 1058.53125 546.574219 1055.28125 C 548.199219 1044.28125 548.824219 1043.53125 551.824219 1049.40625 C 553.324219 1052.15625 556.574219 1056.65625 559.074219 1059.28125 C 563.324219 1063.78125 563.699219 1064.03125 564.699219 1061.65625 C 565.199219 1060.28125 565.699219 1057.28125 565.699219 1055.03125 C 565.824219 1050.15625 567.449219 1049.90625 569.449219 1054.28125 C 571.199219 1058.15625 577.074219 1066.03125 578.199219 1066.03125 C 578.574219 1066.03125 578.824219 1061.90625 578.574219 1056.90625 C 578.324219 1051.90625 578.824219 1045.28125 579.574219 1042.28125 L 581.199219 1036.65625 L 584.199219 1045.40625 C 587.949219 1056.40625 596.074219 1072.78125 597.699219 1072.53125 C 598.449219 1072.53125 599.824219 1068.28125 600.949219 1063.28125 C 602.074219 1058.28125 603.449219 1053.15625 603.949219 1051.90625 C 604.824219 1049.78125 604.949219 1049.78125 607.449219 1051.90625 C 610.449219 1054.65625 615.449219 1065.53125 620.074219 1079.53125 C 621.949219 1085.15625 623.824219 1089.78125 624.074219 1089.78125 C 625.449219 1089.78125 632.074219 1073.78125 632.074219 1070.40625 L 632.199219 1066.65625 L 634.574219 1069.53125 C 637.699219 1073.28125 639.574219 1080.03125 639.574219 1087.53125 C 639.574219 1091.90625 640.074219 1093.53125 641.324219 1093.53125 C 644.199219 1093.53125 650.574219 1087.53125 654.199219 1081.40625 L 657.449219 1075.78125 L 662.199219 1084.90625 C 664.949219 1090.03125 668.699219 1095.65625 670.574219 1097.65625 L 674.074219 1101.15625 L 673.574219 1093.78125 C 673.324219 1089.78125 673.699219 1083.15625 674.574219 1079.03125 L 676.074219 1071.65625 L 679.199219 1078.53125 C 683.699219 1088.78125 688.199219 1092.90625 688.449219 1086.90625 C 688.449219 1085.40625 688.949219 1083.03125 689.449219 1081.78125 C 690.199219 1079.78125 690.824219 1080.28125 692.949219 1085.03125 C 694.449219 1088.03125 696.074219 1092.78125 696.574219 1095.40625 L 697.449219 1100.28125 L 701.449219 1095.78125 C 703.699219 1093.28125 706.949219 1087.78125 708.574219 1083.40625 L 711.449219 1075.40625 L 712.199219 1087.65625 C 712.574219 1094.28125 713.574219 1100.53125 714.324219 1101.28125 C 716.324219 1103.28125 720.449219 1093.53125 721.574219 1084.15625 C 722.449219 1077.53125 722.574219 1077.15625 724.324219 1079.28125 C 727.449219 1083.40625 732.074219 1094.40625 733.199219 1100.03125 L 734.074219 1105.40625 L 738.074219 1099.15625 C 740.324219 1095.78125 743.074219 1089.90625 744.074219 1086.03125 C 745.199219 1082.28125 746.449219 1078.28125 746.699219 1077.28125 C 747.074219 1076.28125 748.699219 1079.03125 750.449219 1083.53125 C 752.824219 1089.65625 753.449219 1093.03125 752.824219 1097.53125 L 752.199219 1103.53125 L 755.324219 1101.40625 C 759.574219 1098.65625 764.824219 1090.78125 770.324219 1078.90625 L 774.949219 1069.15625 L 776.449219 1074.15625 C 777.324219 1076.90625 778.824219 1084.03125 779.574219 1090.15625 C 780.699219 1097.65625 781.699219 1101.03125 782.824219 1101.03125 C 786.074219 1101.03125 795.449219 1085.78125 800.074219 1072.90625 C 800.824219 1070.90625 801.574219 1071.78125 803.949219 1077.78125 C 805.574219 1081.78125 807.199219 1085.40625 807.699219 1085.78125 C 809.074219 1087.15625 811.699219 1082.65625 814.699219 1074.03125 L 817.574219 1066.03125 L 821.199219 1070.53125 L 824.949219 1074.90625 L 828.199219 1068.40625 C 831.949219 1060.78125 834.574219 1059.15625 834.574219 1064.40625 C 834.574219 1069.15625 837.824219 1082.28125 839.199219 1083.65625 C 839.949219 1084.40625 841.449219 1082.15625 843.199219 1077.28125 C 844.699219 1073.03125 846.949219 1067.53125 847.949219 1065.03125 L 849.949219 1060.40625 L 852.824219 1071.78125 C 854.324219 1078.03125 856.574219 1085.28125 857.699219 1087.90625 L 859.699219 1092.78125 L 863.949219 1082.90625 C 869.324219 1070.78125 870.199219 1069.65625 872.824219 1073.28125 C 875.699219 1077.40625 877.449219 1076.65625 880.574219 1069.40625 C 882.074219 1065.90625 884.449219 1061.53125 885.824219 1059.78125 L 888.074219 1056.78125 L 886.824219 1062.28125 C 886.074219 1065.40625 884.449219 1070.28125 883.074219 1073.15625 C 880.449219 1079.15625 876.324219 1096.90625 877.324219 1098.03125 C 877.824219 1098.40625 879.324219 1098.03125 880.824219 1097.28125 C 885.199219 1095.03125 885.199219 1096.78125 880.949219 1101.03125 C 877.699219 1104.28125 874.199219 1111.90625 875.324219 1113.28125 C 875.449219 1113.53125 877.074219 1112.78125 878.949219 1111.53125 C 881.949219 1109.53125 882.324219 1109.53125 884.324219 1111.40625 C 886.199219 1113.40625 886.074219 1113.90625 881.699219 1118.28125 C 876.074219 1124.03125 875.699219 1126.53125 880.574219 1125.40625 C 882.949219 1124.90625 884.699219 1125.28125 885.699219 1126.40625 C 886.824219 1127.90625 886.324219 1128.78125 882.449219 1131.03125 L 877.824219 1133.78125 L 882.824219 1136.03125 C 885.449219 1137.15625 888.449219 1139.53125 889.449219 1141.15625 C 890.949219 1143.78125 890.824219 1144.28125 887.574219 1147.28125 L 883.824219 1150.53125 L 887.699219 1152.28125 C 891.949219 1154.40625 893.199219 1158.53125 890.199219 1161.03125 C 887.824219 1163.03125 887.699219 1164.78125 890.074219 1164.78125 C 893.324219 1164.78125 894.574219 1168.15625 897.074219 1183.03125 C 903.199219 1218.65625 910.699219 1251.78125 920.824219 1287.28125 C 927.824219 1312.40625 935.074219 1344.65625 941.324219 1378.78125 C 944.324219 1395.53125 948.074219 1412.15625 949.449219 1415.78125 C 952.574219 1423.53125 958.824219 1433.65625 964.574219 1440.28125 C 975.074219 1452.28125 1000.199219 1458.03125 1019.449219 1453.03125 C 1024.574219 1451.65625 1026.824219 1451.53125 1029.449219 1452.65625 C 1034.574219 1454.78125 1061.324219 1454.28125 1070.699219 1451.78125 C 1080.199219 1449.15625 1086.824219 1446.03125 1089.949219 1442.53125 C 1091.699219 1440.53125 1093.324219 1440.15625 1096.574219 1440.65625 C 1098.949219 1441.03125 1100.824219 1441.03125 1100.824219 1440.53125 C 1100.824219 1438.65625 1078.324219 1406.15625 1072.824219 1400.15625 C 1069.074219 1396.03125 1063.949219 1392.15625 1058.824219 1389.65625 C 1051.824219 1386.15625 1049.949219 1385.78125 1043.574219 1386.40625 C 1039.574219 1386.65625 1033.949219 1388.15625 1031.074219 1389.65625 C 1028.324219 1391.03125 1025.699219 1391.90625 1025.449219 1391.28125 C 1024.449219 1389.78125 1013.574219 1350.78125 1012.199219 1343.78125 C 1008.324219 1324.65625 1009.449219 1297.65625 1015.824219 1259.15625 L 1019.324219 1237.90625 L 1019.449219 1252.15625 L 1019.574219 1266.53125 L 1022.074219 1263.78125 C 1026.324219 1259.28125 1029.199219 1260.65625 1026.574219 1265.90625 C 1024.699219 1269.53125 1021.699219 1282.40625 1022.574219 1283.15625 C 1022.824219 1283.53125 1025.449219 1282.03125 1028.449219 1279.90625 C 1035.949219 1274.40625 1037.449219 1274.78125 1034.449219 1281.53125 C 1033.199219 1284.53125 1031.699219 1289.78125 1031.324219 1293.15625 L 1030.449219 1299.15625 L 1033.574219 1296.28125 C 1036.199219 1293.90625 1039.574219 1292.53125 1039.574219 1294.03125 C 1039.574219 1294.28125 1038.824219 1296.40625 1037.824219 1298.65625 C 1036.074219 1302.78125 1033.699219 1319.78125 1034.824219 1319.78125 C 1035.199219 1319.78125 1037.824219 1317.53125 1040.699219 1314.78125 C 1043.574219 1312.03125 1047.074219 1309.78125 1048.324219 1309.78125 C 1050.699219 1309.78125 1050.699219 1310.03125 1047.699219 1316.78125 C 1043.699219 1325.65625 1043.824219 1326.78125 1047.824219 1323.65625 C 1049.699219 1322.15625 1052.449219 1321.03125 1053.949219 1321.03125 C 1056.574219 1321.03125 1056.824219 1321.53125 1056.199219 1326.28125 C 1055.949219 1329.28125 1055.449219 1332.65625 1055.199219 1333.78125 C 1054.699219 1336.40625 1055.074219 1336.53125 1058.574219 1334.65625 C 1060.449219 1333.65625 1062.449219 1333.65625 1065.824219 1334.65625 C 1069.824219 1335.78125 1070.699219 1336.90625 1073.199219 1343.15625 C 1082.074219 1365.03125 1104.449219 1404.03125 1123.574219 1430.40625 C 1129.324219 1438.28125 1136.449219 1448.90625 1139.574219 1453.78125 C 1149.074219 1468.90625 1159.449219 1473.28125 1186.824219 1473.65625 C 1201.324219 1473.90625 1203.324219 1473.65625 1210.824219 1470.65625 C 1215.324219 1468.78125 1221.824219 1466.78125 1225.199219 1466.15625 C 1233.574219 1464.53125 1237.199219 1463.03125 1245.074219 1458.03125 L 1251.824219 1453.78125 L 1254.699219 1456.78125 C 1259.074219 1461.53125 1259.949219 1460.53125 1259.199219 1451.90625 C 1257.699219 1435.53125 1248.949219 1421.15625 1233.699219 1409.53125 C 1221.199219 1400.15625 1214.324219 1398.03125 1195.699219 1397.90625 L 1180.074219 1397.90625 L 1175.199219 1386.65625 C 1162.449219 1356.65625 1151.199219 1325.78125 1146.574219 1307.65625 C 1140.199219 1283.28125 1137.574219 1235.03125 1139.574219 1181.65625 C 1141.574219 1128.40625 1145.449219 1075.15625 1149.199219 1049.15625 C 1150.824219 1038.03125 1151.074219 1028.78125 1150.449219 1000.15625 C 1149.699219 966.65625 1149.824219 964.78125 1151.949219 964.78125 C 1153.199219 964.78125 1160.324219 965.90625 1167.699219 967.28125 C 1175.199219 968.53125 1181.574219 969.53125 1181.824219 969.28125 C 1181.949219 969.03125 1179.324219 966.28125 1175.824219 963.15625 L 1169.324219 957.65625 L 1174.824219 956.78125 C 1180.199219 955.90625 1203.324219 957.65625 1210.449219 959.28125 L 1213.949219 960.15625 L 1209.824219 955.78125 C 1204.199219 949.78125 1194.074219 944.90625 1184.074219 943.15625 C 1179.574219 942.40625 1175.824219 941.40625 1175.824219 941.03125 C 1175.824219 939.03125 1195.449219 931.03125 1200.574219 931.03125 C 1202.074219 931.03125 1203.324219 930.53125 1203.324219 929.90625 C 1203.324219 928.53125 1192.949219 923.53125 1189.949219 923.40625 C 1188.699219 923.40625 1193.699219 921.78125 1201.074219 919.78125 C 1208.449219 917.78125 1216.324219 915.15625 1218.574219 914.03125 L 1222.699219 911.90625 L 1219.574219 910.65625 C 1217.824219 909.90625 1213.949219 908.28125 1210.824219 906.78125 L 1205.199219 904.28125 L 1210.199219 903.40625 C 1212.949219 902.90625 1219.074219 901.90625 1223.824219 901.15625 C 1238.824219 898.53125 1246.824219 893.53125 1235.824219 893.53125 C 1230.449219 893.53125 1224.824219 891.28125 1222.199219 888.03125 C 1220.699219 886.28125 1221.074219 886.03125 1224.824219 886.03125 C 1229.699219 886.03125 1236.199219 884.03125 1240.699219 881.15625 L 1243.574219 879.28125 L 1240.324219 876.90625 C 1237.199219 874.65625 1233.324219 868.78125 1233.324219 866.28125 C 1233.324219 865.65625 1236.699219 864.65625 1240.949219 864.28125 C 1252.949219 862.90625 1252.949219 862.78125 1245.449219 854.90625 C 1241.699219 851.03125 1237.699219 846.03125 1236.574219 843.78125 L 1234.449219 839.65625 L 1237.949219 840.53125 C 1239.824219 841.03125 1242.699219 841.90625 1244.324219 842.40625 C 1249.449219 844.28125 1249.574219 843.65625 1245.699219 835.90625 C 1238.574219 821.53125 1236.699219 812.78125 1239.574219 807.28125 C 1241.074219 804.40625 1247.199219 802.28125 1254.199219 802.28125 C 1258.824219 802.28125 1259.699219 801.90625 1259.324219 800.15625 C 1259.074219 798.90625 1257.199219 796.90625 1255.074219 795.40625 C 1245.824219 789.40625 1245.949219 789.65625 1253.324219 790.15625 C 1257.074219 790.53125 1261.199219 791.15625 1262.449219 791.65625 C 1264.699219 792.53125 1264.574219 792.28125 1262.199219 787.40625 C 1260.699219 784.53125 1258.949219 780.78125 1258.324219 779.15625 L 1257.199219 776.15625 L 1262.324219 778.03125 C 1265.074219 779.03125 1267.824219 779.78125 1268.449219 779.78125 C 1269.074219 779.78125 1267.824219 775.15625 1265.824219 769.53125 C 1263.699219 763.90625 1262.074219 759.03125 1262.074219 758.65625 C 1262.074219 758.28125 1264.074219 759.90625 1266.449219 762.28125 L 1270.824219 766.53125 L 1270.824219 760.28125 C 1270.824219 756.65625 1269.449219 751.15625 1267.699219 746.78125 L 1264.699219 739.40625 L 1269.324219 743.78125 C 1276.574219 750.65625 1282.699219 754.78125 1285.574219 754.78125 C 1288.949219 754.78125 1288.949219 754.65625 1285.949219 748.78125 C 1283.449219 743.78125 1279.074219 727.40625 1279.949219 726.53125 C 1280.199219 726.15625 1282.824219 729.78125 1285.574219 734.53125 C 1290.699219 743.03125 1294.074219 747.03125 1295.324219 745.78125 C 1295.699219 745.40625 1295.324219 741.28125 1294.449219 736.65625 C 1293.324219 730.15625 1293.324219 721.28125 1294.574219 697.78125 C 1295.449219 681.03125 1296.574219 667.28125 1297.074219 667.28125 C 1297.574219 667.28125 1298.574219 668.65625 1299.324219 670.40625 C 1301.824219 675.78125 1302.824219 673.78125 1302.324219 664.40625 C 1301.824219 654.65625 1303.074219 654.15625 1305.949219 662.90625 L 1307.574219 667.90625 L 1308.449219 658.28125 C 1309.199219 649.53125 1309.824219 647.78125 1315.574219 638.78125 C 1323.074219 627.15625 1330.199219 612.53125 1332.324219 604.78125 L 1333.824219 599.15625 L 1334.449219 603.53125 C 1334.949219 606.53125 1335.574219 607.40625 1336.324219 606.28125 C 1338.074219 603.40625 1340.824219 592.03125 1340.949219 586.65625 C 1341.074219 582.40625 1341.199219 582.15625 1341.949219 584.78125 C 1342.824219 587.78125 1342.949219 587.78125 1344.199219 585.40625 C 1349.199219 576.03125 1353.574219 551.15625 1354.074219 528.53125 C 1354.199219 518.53125 1354.449219 509.90625 1354.449219 509.40625 C 1354.574219 508.78125 1355.699219 508.78125 1357.074219 509.15625 C 1359.949219 510.03125 1360.074219 509.90625 1358.324219 505.28125 C 1357.074219 502.15625 1357.199219 502.03125 1359.824219 502.78125 C 1361.449219 503.28125 1364.199219 503.90625 1365.949219 504.28125 L 1369.324219 505.03125 L 1365.824219 497.78125 C 1363.824219 493.65625 1361.949219 488.78125 1361.574219 486.90625 L 1360.699219 483.40625 L 1365.824219 486.78125 C 1368.574219 488.65625 1371.199219 489.90625 1371.449219 489.53125 C 1371.824219 489.15625 1370.699219 485.65625 1368.824219 481.78125 C 1365.324219 474.03125 1365.449219 472.53125 1369.324219 474.65625 C 1372.074219 476.15625 1377.449219 476.40625 1381.574219 475.28125 C 1384.199219 474.53125 1384.199219 474.40625 1379.949219 467.53125 C 1375.574219 460.03125 1372.449219 451.53125 1373.699219 450.28125 C 1374.074219 449.78125 1377.074219 450.40625 1380.324219 451.53125 C 1383.574219 452.65625 1386.449219 453.28125 1386.699219 453.15625 C 1386.949219 452.90625 1385.199219 450.65625 1382.824219 448.15625 C 1378.574219 443.53125 1373.574219 432.90625 1375.074219 431.40625 C 1375.449219 431.03125 1379.074219 431.53125 1382.949219 432.65625 C 1386.949219 433.65625 1390.324219 434.53125 1390.449219 434.28125 C 1390.574219 434.15625 1389.199219 432.03125 1387.199219 429.65625 C 1382.324219 423.78125 1379.574219 413.78125 1379.574219 402.28125 C 1379.574219 397.03125 1378.074219 382.90625 1376.324219 370.90625 C 1373.449219 351.78125 1373.199219 346.40625 1373.699219 326.03125 C 1374.699219 283.90625 1381.324219 261.40625 1409.449219 203.65625 C 1431.574219 158.28125 1435.949219 147.78125 1436.699219 138.53125 C 1437.699219 128.15625 1433.199219 112.90625 1426.699219 104.28125 C 1424.949219 101.90625 1424.449219 101.90625 1417.824219 103.53125 C 1411.449219 105.03125 1410.324219 105.03125 1407.074219 103.15625 C 1402.324219 100.28125 1399.074219 100.40625 1400.199219 103.15625 C 1400.699219 104.40625 1401.324219 107.40625 1401.699219 109.90625 C 1402.324219 113.78125 1401.824219 114.78125 1398.574219 117.03125 C 1395.199219 119.53125 1379.074219 127.28125 1377.449219 127.28125 C 1376.574219 127.28125 1377.949219 109.53125 1380.199219 92.53125 C 1384.699219 59.28125 1380.449219 43.65625 1360.449219 19.15625 C 1344.199219 -0.84375 1337.699219 -3.71875 1326.324219 3.78125 Z M 1326.324219 3.78125 "/>
</g>
</svg>
